<svg xmlns="http://www.w3.org/2000/svg" viewBox="0 0 32 32" width="128" height="128"
     shape-rendering="crispEdges" role="img" aria-label="una pata de acero">
  <rect x="22" y="5" width="1" height="1" fill="#8A857D"/>
  <rect x="21" y="6" width="3" height="1" fill="#8A857D"/>
  <rect x="20" y="7" width="5" height="1" fill="#8A857D"/>
  <rect x="18" y="8" width="3" height="1" fill="#EDEAE3"/>
  <rect x="21" y="8" width="3" height="1" fill="#8A857D"/>
  <rect x="24" y="8" width="1" height="1" fill="#EDEAE3"/>
  <rect x="16" y="9" width="5" height="1" fill="#EDEAE3"/>
  <rect x="22" y="9" width="1" height="1" fill="#8A857D"/>
  <rect x="23" y="9" width="2" height="1" fill="#EDEAE3"/>
  <rect x="13" y="10" width="1" height="1" fill="#8A857D"/>
  <rect x="14" y="10" width="5" height="1" fill="#EDEAE3"/>
  <rect x="23" y="10" width="2" height="1" fill="#EDEAE3"/>
  <rect x="12" y="11" width="3" height="1" fill="#8A857D"/>
  <rect x="15" y="11" width="2" height="1" fill="#EDEAE3"/>
  <rect x="23" y="11" width="3" height="1" fill="#EDEAE3"/>
  <rect x="11" y="12" width="5" height="1" fill="#8A857D"/>
  <rect x="24" y="12" width="2" height="1" fill="#EDEAE3"/>
  <rect x="12" y="13" width="3" height="1" fill="#8A857D"/>
  <rect x="24" y="13" width="3" height="1" fill="#EDEAE3"/>
  <rect x="11" y="14" width="2" height="1" fill="#EDEAE3"/>
  <rect x="13" y="14" width="1" height="1" fill="#8A857D"/>
  <rect x="25" y="14" width="2" height="1" fill="#EDEAE3"/>
  <rect x="11" y="15" width="2" height="1" fill="#EDEAE3"/>
  <rect x="25" y="15" width="2" height="1" fill="#EDEAE3"/>
  <rect x="10" y="16" width="3" height="1" fill="#EDEAE3"/>
  <rect x="25" y="16" width="3" height="1" fill="#EDEAE3"/>
  <rect x="10" y="17" width="2" height="1" fill="#EDEAE3"/>
  <rect x="26" y="17" width="2" height="1" fill="#EDEAE3"/>
  <rect x="9" y="18" width="3" height="1" fill="#EDEAE3"/>
  <rect x="26" y="18" width="2" height="1" fill="#EDEAE3"/>
  <rect x="9" y="19" width="2" height="1" fill="#EDEAE3"/>
  <rect x="26" y="19" width="3" height="1" fill="#8A857D"/>
  <rect x="8" y="20" width="3" height="1" fill="#EDEAE3"/>
  <rect x="26" y="20" width="3" height="1" fill="#8A857D"/>
  <rect x="7" y="21" width="3" height="1" fill="#EDEAE3"/>
  <rect x="26" y="21" width="3" height="1" fill="#8A857D"/>
  <rect x="7" y="22" width="2" height="1" fill="#EDEAE3"/>
  <rect x="27" y="22" width="1" height="1" fill="#EDEAE3"/>
  <rect x="6" y="23" width="3" height="1" fill="#EDEAE3"/>
  <rect x="28" y="23" width="1" height="1" fill="#EDEAE3"/>
  <rect x="6" y="24" width="2" height="1" fill="#EDEAE3"/>
  <rect x="28" y="24" width="1" height="1" fill="#EDEAE3"/>
  <rect x="5" y="25" width="3" height="1" fill="#EDEAE3"/>
  <rect x="28" y="25" width="1" height="1" fill="#EDEAE3"/>
  <rect x="5" y="26" width="2" height="1" fill="#EDEAE3"/>
  <rect x="28" y="26" width="1" height="1" fill="#EDEAE3"/>
  <rect x="4" y="27" width="3" height="1" fill="#EDEAE3"/>
  <rect x="29" y="27" width="1" height="1" fill="#EDEAE3"/>
  <rect x="4" y="28" width="2" height="1" fill="#EDEAE3"/>
  <rect x="29" y="28" width="1" height="1" fill="#EDEAE3"/>
  <rect x="3" y="29" width="1" height="1" fill="#B5432E"/>
  <rect x="4" y="29" width="2" height="1" fill="#EDEAE3"/>
  <rect x="29" y="29" width="1" height="1" fill="#B5432E"/>
  <rect x="3" y="30" width="2" height="1" fill="#EDEAE3"/>
</svg>
