<svg xmlns="http://www.w3.org/2000/svg" viewBox="0 0 32 32" width="128" height="128"
     shape-rendering="crispEdges" role="img" aria-label="un nudo que se muerde">
  <rect x="27" y="7" width="1" height="1" fill="#EDEAE3"/>
  <rect x="26" y="8" width="2" height="1" fill="#EDEAE3"/>
  <rect x="12" y="9" width="5" height="1" fill="#EDEAE3"/>
  <rect x="25" y="9" width="1" height="1" fill="#EDEAE3"/>
  <rect x="28" y="9" width="1" height="1" fill="#EDEAE3"/>
  <rect x="10" y="10" width="2" height="1" fill="#EDEAE3"/>
  <rect x="12" y="10" width="4" height="1" fill="#8A857D"/>
  <rect x="24" y="10" width="1" height="1" fill="#EDEAE3"/>
  <rect x="28" y="10" width="1" height="1" fill="#EDEAE3"/>
  <rect x="9" y="11" width="1" height="1" fill="#EDEAE3"/>
  <rect x="10" y="11" width="3" height="1" fill="#8A857D"/>
  <rect x="23" y="11" width="1" height="1" fill="#EDEAE3"/>
  <rect x="28" y="11" width="1" height="1" fill="#EDEAE3"/>
  <rect x="8" y="12" width="1" height="1" fill="#EDEAE3"/>
  <rect x="9" y="12" width="2" height="1" fill="#8A857D"/>
  <rect x="22" y="12" width="1" height="1" fill="#EDEAE3"/>
  <rect x="28" y="12" width="1" height="1" fill="#EDEAE3"/>
  <rect x="7" y="13" width="1" height="1" fill="#EDEAE3"/>
  <rect x="8" y="13" width="2" height="1" fill="#8A857D"/>
  <rect x="29" y="13" width="1" height="1" fill="#EDEAE3"/>
  <rect x="7" y="14" width="1" height="1" fill="#EDEAE3"/>
  <rect x="8" y="14" width="1" height="1" fill="#8A857D"/>
  <rect x="28" y="14" width="2" height="1" fill="#EDEAE3"/>
  <rect x="6" y="15" width="1" height="1" fill="#EDEAE3"/>
  <rect x="7" y="15" width="2" height="1" fill="#8A857D"/>
  <rect x="26" y="15" width="2" height="1" fill="#EDEAE3"/>
  <rect x="6" y="16" width="1" height="1" fill="#EDEAE3"/>
  <rect x="7" y="16" width="1" height="1" fill="#8A857D"/>
  <rect x="19" y="16" width="1" height="1" fill="#EDEAE3"/>
  <rect x="24" y="16" width="2" height="1" fill="#EDEAE3"/>
  <rect x="6" y="17" width="1" height="1" fill="#EDEAE3"/>
  <rect x="7" y="17" width="1" height="1" fill="#8A857D"/>
  <rect x="18" y="17" width="3" height="1" fill="#EDEAE3"/>
  <rect x="22" y="17" width="2" height="1" fill="#EDEAE3"/>
  <rect x="6" y="18" width="1" height="1" fill="#EDEAE3"/>
  <rect x="7" y="18" width="1" height="1" fill="#8A857D"/>
  <rect x="17" y="18" width="1" height="1" fill="#B5432E"/>
  <rect x="18" y="18" width="4" height="1" fill="#EDEAE3"/>
  <rect x="6" y="19" width="1" height="1" fill="#EDEAE3"/>
  <rect x="7" y="19" width="1" height="1" fill="#8A857D"/>
  <rect x="17" y="19" width="1" height="1" fill="#B5432E"/>
  <rect x="18" y="19" width="3" height="1" fill="#EDEAE3"/>
  <rect x="23" y="19" width="1" height="1" fill="#8A857D"/>
  <rect x="24" y="19" width="1" height="1" fill="#EDEAE3"/>
  <rect x="6" y="20" width="1" height="1" fill="#EDEAE3"/>
  <rect x="7" y="20" width="1" height="1" fill="#8A857D"/>
  <rect x="19" y="20" width="1" height="1" fill="#EDEAE3"/>
  <rect x="23" y="20" width="1" height="1" fill="#8A857D"/>
  <rect x="24" y="20" width="1" height="1" fill="#EDEAE3"/>
  <rect x="6" y="21" width="1" height="1" fill="#EDEAE3"/>
  <rect x="7" y="21" width="2" height="1" fill="#8A857D"/>
  <rect x="22" y="21" width="2" height="1" fill="#8A857D"/>
  <rect x="24" y="21" width="1" height="1" fill="#EDEAE3"/>
  <rect x="7" y="22" width="1" height="1" fill="#EDEAE3"/>
  <rect x="8" y="22" width="1" height="1" fill="#8A857D"/>
  <rect x="22" y="22" width="1" height="1" fill="#8A857D"/>
  <rect x="23" y="22" width="1" height="1" fill="#EDEAE3"/>
  <rect x="7" y="23" width="1" height="1" fill="#EDEAE3"/>
  <rect x="8" y="23" width="2" height="1" fill="#8A857D"/>
  <rect x="21" y="23" width="2" height="1" fill="#8A857D"/>
  <rect x="23" y="23" width="1" height="1" fill="#EDEAE3"/>
  <rect x="8" y="24" width="1" height="1" fill="#EDEAE3"/>
  <rect x="9" y="24" width="2" height="1" fill="#8A857D"/>
  <rect x="20" y="24" width="2" height="1" fill="#8A857D"/>
  <rect x="22" y="24" width="1" height="1" fill="#EDEAE3"/>
  <rect x="9" y="25" width="1" height="1" fill="#EDEAE3"/>
  <rect x="10" y="25" width="3" height="1" fill="#8A857D"/>
  <rect x="18" y="25" width="3" height="1" fill="#8A857D"/>
  <rect x="21" y="25" width="1" height="1" fill="#EDEAE3"/>
  <rect x="10" y="26" width="2" height="1" fill="#EDEAE3"/>
  <rect x="12" y="26" width="7" height="1" fill="#8A857D"/>
  <rect x="19" y="26" width="2" height="1" fill="#EDEAE3"/>
  <rect x="12" y="27" width="7" height="1" fill="#EDEAE3"/>
</svg>
