<svg xmlns="http://www.w3.org/2000/svg" viewBox="0 0 32 32" width="128" height="128"
     shape-rendering="crispEdges" role="img" aria-label="un crisol">
  <rect x="8" y="10" width="17" height="1" fill="#EDEAE3"/>
  <rect x="8" y="11" width="1" height="1" fill="#EDEAE3"/>
  <rect x="10" y="11" width="13" height="1" fill="#161412"/>
  <rect x="24" y="11" width="1" height="1" fill="#EDEAE3"/>
  <rect x="5" y="12" width="4" height="1" fill="#8A857D"/>
  <rect x="10" y="12" width="13" height="1" fill="#161412"/>
  <rect x="24" y="12" width="4" height="1" fill="#8A857D"/>
  <rect x="5" y="13" width="4" height="1" fill="#8A857D"/>
  <rect x="9" y="13" width="1" height="1" fill="#EDEAE3"/>
  <rect x="10" y="13" width="13" height="1" fill="#161412"/>
  <rect x="23" y="13" width="1" height="1" fill="#EDEAE3"/>
  <rect x="24" y="13" width="4" height="1" fill="#8A857D"/>
  <rect x="5" y="14" width="4" height="1" fill="#8A857D"/>
  <rect x="9" y="14" width="1" height="1" fill="#EDEAE3"/>
  <rect x="10" y="14" width="13" height="1" fill="#161412"/>
  <rect x="23" y="14" width="1" height="1" fill="#EDEAE3"/>
  <rect x="24" y="14" width="4" height="1" fill="#8A857D"/>
  <rect x="9" y="15" width="1" height="1" fill="#EDEAE3"/>
  <rect x="10" y="15" width="1" height="1" fill="#161412"/>
  <rect x="11" y="15" width="11" height="1" fill="#8A857D"/>
  <rect x="22" y="15" width="1" height="1" fill="#161412"/>
  <rect x="23" y="15" width="1" height="1" fill="#EDEAE3"/>
  <rect x="9" y="16" width="1" height="1" fill="#EDEAE3"/>
  <rect x="10" y="16" width="1" height="1" fill="#161412"/>
  <rect x="11" y="16" width="11" height="1" fill="#8A857D"/>
  <rect x="22" y="16" width="1" height="1" fill="#161412"/>
  <rect x="23" y="16" width="1" height="1" fill="#EDEAE3"/>
  <rect x="9" y="17" width="1" height="1" fill="#EDEAE3"/>
  <rect x="10" y="17" width="3" height="1" fill="#161412"/>
  <rect x="13" y="17" width="7" height="1" fill="#B5432E"/>
  <rect x="20" y="17" width="3" height="1" fill="#161412"/>
  <rect x="23" y="17" width="1" height="1" fill="#EDEAE3"/>
  <rect x="9" y="18" width="1" height="1" fill="#EDEAE3"/>
  <rect x="10" y="18" width="3" height="1" fill="#161412"/>
  <rect x="13" y="18" width="7" height="1" fill="#B5432E"/>
  <rect x="20" y="18" width="3" height="1" fill="#161412"/>
  <rect x="23" y="18" width="1" height="1" fill="#EDEAE3"/>
  <rect x="10" y="19" width="3" height="1" fill="#161412"/>
  <rect x="13" y="19" width="7" height="1" fill="#B5432E"/>
  <rect x="20" y="19" width="3" height="1" fill="#161412"/>
  <rect x="10" y="20" width="13" height="1" fill="#161412"/>
  <rect x="10" y="21" width="13" height="1" fill="#161412"/>
  <rect x="10" y="22" width="13" height="1" fill="#161412"/>
  <rect x="10" y="23" width="13" height="1" fill="#161412"/>
  <rect x="10" y="24" width="13" height="1" fill="#161412"/>
  <rect x="10" y="25" width="2" height="1" fill="#161412"/>
  <rect x="12" y="25" width="9" height="1" fill="#2A2724"/>
  <rect x="21" y="25" width="2" height="1" fill="#161412"/>
  <rect x="10" y="26" width="13" height="1" fill="#161412"/>
  <rect x="11" y="27" width="11" height="1" fill="#EDEAE3"/>
</svg>
