<svg xmlns="http://www.w3.org/2000/svg" viewBox="0 0 32 32" width="128" height="128"
     shape-rendering="crispEdges" role="img" aria-label="una llave de plata">
  <rect x="6" y="11" width="5" height="1" fill="#EDEAE3"/>
  <rect x="4" y="12" width="3" height="1" fill="#EDEAE3"/>
  <rect x="10" y="12" width="3" height="1" fill="#EDEAE3"/>
  <rect x="4" y="13" width="1" height="1" fill="#EDEAE3"/>
  <rect x="6" y="13" width="1" height="1" fill="#B5432E"/>
  <rect x="7" y="13" width="4" height="1" fill="#8A857D"/>
  <rect x="12" y="13" width="1" height="1" fill="#EDEAE3"/>
  <rect x="3" y="14" width="2" height="1" fill="#EDEAE3"/>
  <rect x="5" y="14" width="2" height="1" fill="#8A857D"/>
  <rect x="10" y="14" width="2" height="1" fill="#8A857D"/>
  <rect x="12" y="14" width="2" height="1" fill="#EDEAE3"/>
  <rect x="3" y="15" width="1" height="1" fill="#EDEAE3"/>
  <rect x="5" y="15" width="1" height="1" fill="#8A857D"/>
  <rect x="11" y="15" width="1" height="1" fill="#8A857D"/>
  <rect x="13" y="15" width="1" height="1" fill="#EDEAE3"/>
  <rect x="18" y="15" width="1" height="1" fill="#2A2724"/>
  <rect x="3" y="16" width="1" height="1" fill="#EDEAE3"/>
  <rect x="5" y="16" width="1" height="1" fill="#8A857D"/>
  <rect x="11" y="16" width="1" height="1" fill="#8A857D"/>
  <rect x="13" y="16" width="16" height="1" fill="#EDEAE3"/>
  <rect x="3" y="17" width="1" height="1" fill="#EDEAE3"/>
  <rect x="5" y="17" width="1" height="1" fill="#8A857D"/>
  <rect x="11" y="17" width="1" height="1" fill="#8A857D"/>
  <rect x="13" y="17" width="8" height="1" fill="#8A857D"/>
  <rect x="21" y="17" width="1" height="1" fill="#EDEAE3"/>
  <rect x="22" y="17" width="2" height="1" fill="#8A857D"/>
  <rect x="24" y="17" width="1" height="1" fill="#EDEAE3"/>
  <rect x="25" y="17" width="2" height="1" fill="#8A857D"/>
  <rect x="27" y="17" width="1" height="1" fill="#EDEAE3"/>
  <rect x="28" y="17" width="1" height="1" fill="#8A857D"/>
  <rect x="3" y="18" width="2" height="1" fill="#EDEAE3"/>
  <rect x="5" y="18" width="2" height="1" fill="#8A857D"/>
  <rect x="10" y="18" width="2" height="1" fill="#8A857D"/>
  <rect x="12" y="18" width="2" height="1" fill="#EDEAE3"/>
  <rect x="21" y="18" width="1" height="1" fill="#EDEAE3"/>
  <rect x="24" y="18" width="1" height="1" fill="#EDEAE3"/>
  <rect x="27" y="18" width="1" height="1" fill="#EDEAE3"/>
  <rect x="4" y="19" width="1" height="1" fill="#EDEAE3"/>
  <rect x="6" y="19" width="5" height="1" fill="#8A857D"/>
  <rect x="12" y="19" width="1" height="1" fill="#EDEAE3"/>
  <rect x="21" y="19" width="1" height="1" fill="#EDEAE3"/>
  <rect x="24" y="19" width="1" height="1" fill="#EDEAE3"/>
  <rect x="27" y="19" width="1" height="1" fill="#EDEAE3"/>
  <rect x="4" y="20" width="3" height="1" fill="#EDEAE3"/>
  <rect x="10" y="20" width="3" height="1" fill="#EDEAE3"/>
  <rect x="21" y="20" width="1" height="1" fill="#EDEAE3"/>
  <rect x="24" y="20" width="1" height="1" fill="#EDEAE3"/>
  <rect x="27" y="20" width="1" height="1" fill="#EDEAE3"/>
  <rect x="6" y="21" width="5" height="1" fill="#EDEAE3"/>
  <rect x="24" y="21" width="1" height="1" fill="#EDEAE3"/>
  <rect x="27" y="21" width="1" height="1" fill="#EDEAE3"/>
  <rect x="24" y="22" width="1" height="1" fill="#EDEAE3"/>
</svg>
