<svg xmlns="http://www.w3.org/2000/svg" viewBox="0 0 32 32" width="128" height="128"
     shape-rendering="crispEdges" role="img" aria-label="una camiseta con dorsal">
  <rect x="13" y="6" width="7" height="1" fill="#0E0D0C"/>
  <rect x="13" y="7" width="7" height="1" fill="#0E0D0C"/>
  <rect x="3" y="8" width="10" height="1" fill="#8A857D"/>
  <rect x="13" y="8" width="1" height="1" fill="#EDEAE3"/>
  <rect x="14" y="8" width="5" height="1" fill="#0E0D0C"/>
  <rect x="19" y="8" width="1" height="1" fill="#EDEAE3"/>
  <rect x="20" y="8" width="10" height="1" fill="#8A857D"/>
  <rect x="3" y="9" width="10" height="1" fill="#8A857D"/>
  <rect x="13" y="9" width="1" height="1" fill="#EDEAE3"/>
  <rect x="14" y="9" width="5" height="1" fill="#0E0D0C"/>
  <rect x="19" y="9" width="1" height="1" fill="#EDEAE3"/>
  <rect x="20" y="9" width="10" height="1" fill="#8A857D"/>
  <rect x="3" y="10" width="10" height="1" fill="#8A857D"/>
  <rect x="13" y="10" width="2" height="1" fill="#EDEAE3"/>
  <rect x="15" y="10" width="3" height="1" fill="#8A857D"/>
  <rect x="18" y="10" width="2" height="1" fill="#EDEAE3"/>
  <rect x="20" y="10" width="10" height="1" fill="#8A857D"/>
  <rect x="3" y="11" width="11" height="1" fill="#8A857D"/>
  <rect x="14" y="11" width="5" height="1" fill="#EDEAE3"/>
  <rect x="19" y="11" width="11" height="1" fill="#8A857D"/>
  <rect x="3" y="12" width="27" height="1" fill="#8A857D"/>
  <rect x="3" y="13" width="27" height="1" fill="#8A857D"/>
  <rect x="3" y="14" width="8" height="1" fill="#8A857D"/>
  <rect x="11" y="14" width="3" height="1" fill="#EDEAE3"/>
  <rect x="14" y="14" width="2" height="1" fill="#8A857D"/>
  <rect x="16" y="14" width="6" height="1" fill="#EDEAE3"/>
  <rect x="22" y="14" width="8" height="1" fill="#8A857D"/>
  <rect x="3" y="15" width="8" height="1" fill="#8A857D"/>
  <rect x="11" y="15" width="3" height="1" fill="#EDEAE3"/>
  <rect x="14" y="15" width="2" height="1" fill="#8A857D"/>
  <rect x="16" y="15" width="6" height="1" fill="#EDEAE3"/>
  <rect x="22" y="15" width="8" height="1" fill="#8A857D"/>
  <rect x="9" y="16" width="2" height="1" fill="#8A857D"/>
  <rect x="11" y="16" width="3" height="1" fill="#EDEAE3"/>
  <rect x="14" y="16" width="2" height="1" fill="#8A857D"/>
  <rect x="16" y="16" width="2" height="1" fill="#EDEAE3"/>
  <rect x="18" y="16" width="2" height="1" fill="#8A857D"/>
  <rect x="20" y="16" width="2" height="1" fill="#EDEAE3"/>
  <rect x="22" y="16" width="2" height="1" fill="#8A857D"/>
  <rect x="9" y="17" width="2" height="1" fill="#8A857D"/>
  <rect x="11" y="17" width="3" height="1" fill="#EDEAE3"/>
  <rect x="14" y="17" width="2" height="1" fill="#8A857D"/>
  <rect x="16" y="17" width="2" height="1" fill="#EDEAE3"/>
  <rect x="18" y="17" width="2" height="1" fill="#8A857D"/>
  <rect x="20" y="17" width="2" height="1" fill="#EDEAE3"/>
  <rect x="22" y="17" width="2" height="1" fill="#8A857D"/>
  <rect x="9" y="18" width="2" height="1" fill="#8A857D"/>
  <rect x="11" y="18" width="3" height="1" fill="#EDEAE3"/>
  <rect x="14" y="18" width="2" height="1" fill="#8A857D"/>
  <rect x="16" y="18" width="2" height="1" fill="#EDEAE3"/>
  <rect x="18" y="18" width="2" height="1" fill="#8A857D"/>
  <rect x="20" y="18" width="2" height="1" fill="#EDEAE3"/>
  <rect x="22" y="18" width="2" height="1" fill="#8A857D"/>
  <rect x="9" y="19" width="2" height="1" fill="#8A857D"/>
  <rect x="11" y="19" width="3" height="1" fill="#EDEAE3"/>
  <rect x="14" y="19" width="2" height="1" fill="#8A857D"/>
  <rect x="16" y="19" width="2" height="1" fill="#EDEAE3"/>
  <rect x="18" y="19" width="2" height="1" fill="#8A857D"/>
  <rect x="20" y="19" width="2" height="1" fill="#EDEAE3"/>
  <rect x="22" y="19" width="2" height="1" fill="#8A857D"/>
  <rect x="9" y="20" width="2" height="1" fill="#8A857D"/>
  <rect x="11" y="20" width="3" height="1" fill="#EDEAE3"/>
  <rect x="14" y="20" width="2" height="1" fill="#8A857D"/>
  <rect x="16" y="20" width="2" height="1" fill="#EDEAE3"/>
  <rect x="18" y="20" width="2" height="1" fill="#8A857D"/>
  <rect x="20" y="20" width="2" height="1" fill="#EDEAE3"/>
  <rect x="22" y="20" width="2" height="1" fill="#8A857D"/>
  <rect x="9" y="21" width="2" height="1" fill="#8A857D"/>
  <rect x="11" y="21" width="3" height="1" fill="#EDEAE3"/>
  <rect x="14" y="21" width="2" height="1" fill="#8A857D"/>
  <rect x="16" y="21" width="2" height="1" fill="#EDEAE3"/>
  <rect x="18" y="21" width="2" height="1" fill="#8A857D"/>
  <rect x="20" y="21" width="2" height="1" fill="#EDEAE3"/>
  <rect x="22" y="21" width="2" height="1" fill="#8A857D"/>
  <rect x="9" y="22" width="2" height="1" fill="#8A857D"/>
  <rect x="11" y="22" width="3" height="1" fill="#EDEAE3"/>
  <rect x="14" y="22" width="2" height="1" fill="#8A857D"/>
  <rect x="16" y="22" width="6" height="1" fill="#EDEAE3"/>
  <rect x="22" y="22" width="2" height="1" fill="#8A857D"/>
  <rect x="9" y="23" width="2" height="1" fill="#8A857D"/>
  <rect x="11" y="23" width="3" height="1" fill="#EDEAE3"/>
  <rect x="14" y="23" width="2" height="1" fill="#8A857D"/>
  <rect x="16" y="23" width="6" height="1" fill="#EDEAE3"/>
  <rect x="22" y="23" width="2" height="1" fill="#8A857D"/>
  <rect x="9" y="24" width="15" height="1" fill="#8A857D"/>
  <rect x="9" y="25" width="15" height="1" fill="#8A857D"/>
  <rect x="9" y="26" width="2" height="1" fill="#8A857D"/>
  <rect x="11" y="26" width="11" height="1" fill="#2A2724"/>
  <rect x="22" y="26" width="2" height="1" fill="#8A857D"/>
  <rect x="9" y="27" width="15" height="1" fill="#8A857D"/>
  <rect x="9" y="28" width="15" height="1" fill="#8A857D"/>
</svg>
