<svg xmlns="http://www.w3.org/2000/svg" viewBox="0 0 32 32" width="128" height="128"
     shape-rendering="crispEdges" role="img" aria-label="una vela consumida">
  <rect x="16" y="9" width="1" height="1" fill="#2A2724"/>
  <rect x="15" y="11" width="1" height="1" fill="#2A2724"/>
  <rect x="16" y="13" width="1" height="1" fill="#2A2724"/>
  <rect x="15" y="15" width="1" height="1" fill="#B5432E"/>
  <rect x="16" y="15" width="1" height="1" fill="#2A2724"/>
  <rect x="15" y="16" width="1" height="1" fill="#2A2724"/>
  <rect x="15" y="17" width="1" height="1" fill="#2A2724"/>
  <rect x="15" y="18" width="1" height="1" fill="#2A2724"/>
  <rect x="12" y="19" width="3" height="1" fill="#EDEAE3"/>
  <rect x="15" y="19" width="1" height="1" fill="#2A2724"/>
  <rect x="16" y="19" width="4" height="1" fill="#EDEAE3"/>
  <rect x="12" y="20" width="8" height="1" fill="#EDEAE3"/>
  <rect x="10" y="21" width="10" height="1" fill="#EDEAE3"/>
  <rect x="10" y="22" width="11" height="1" fill="#EDEAE3"/>
  <rect x="10" y="23" width="10" height="1" fill="#EDEAE3"/>
  <rect x="10" y="24" width="10" height="1" fill="#EDEAE3"/>
  <rect x="9" y="25" width="11" height="1" fill="#EDEAE3"/>
  <rect x="10" y="26" width="10" height="1" fill="#EDEAE3"/>
  <rect x="10" y="27" width="12" height="1" fill="#8A857D"/>
  <rect x="10" y="28" width="12" height="1" fill="#8A857D"/>
  <rect x="10" y="29" width="12" height="1" fill="#8A857D"/>
</svg>
