<svg xmlns="http://www.w3.org/2000/svg" viewBox="0 0 32 32" width="128" height="128"
     shape-rendering="crispEdges" role="img" aria-label="un prisma">
  <rect x="16" y="5" width="1" height="1" fill="#EDEAE3"/>
  <rect x="15" y="6" width="1" height="1" fill="#EDEAE3"/>
  <rect x="16" y="6" width="1" height="1" fill="#161412"/>
  <rect x="17" y="6" width="1" height="1" fill="#EDEAE3"/>
  <rect x="15" y="7" width="1" height="1" fill="#EDEAE3"/>
  <rect x="16" y="7" width="1" height="1" fill="#161412"/>
  <rect x="17" y="7" width="1" height="1" fill="#EDEAE3"/>
  <rect x="14" y="8" width="1" height="1" fill="#EDEAE3"/>
  <rect x="15" y="8" width="3" height="1" fill="#161412"/>
  <rect x="18" y="8" width="1" height="1" fill="#EDEAE3"/>
  <rect x="14" y="9" width="1" height="1" fill="#EDEAE3"/>
  <rect x="15" y="9" width="3" height="1" fill="#161412"/>
  <rect x="18" y="9" width="1" height="1" fill="#EDEAE3"/>
  <rect x="13" y="10" width="1" height="1" fill="#EDEAE3"/>
  <rect x="14" y="10" width="5" height="1" fill="#161412"/>
  <rect x="19" y="10" width="1" height="1" fill="#EDEAE3"/>
  <rect x="12" y="11" width="1" height="1" fill="#EDEAE3"/>
  <rect x="13" y="11" width="7" height="1" fill="#161412"/>
  <rect x="20" y="11" width="1" height="1" fill="#EDEAE3"/>
  <rect x="12" y="12" width="1" height="1" fill="#EDEAE3"/>
  <rect x="13" y="12" width="7" height="1" fill="#161412"/>
  <rect x="20" y="12" width="1" height="1" fill="#EDEAE3"/>
  <rect x="11" y="13" width="1" height="1" fill="#EDEAE3"/>
  <rect x="12" y="13" width="9" height="1" fill="#161412"/>
  <rect x="21" y="13" width="1" height="1" fill="#EDEAE3"/>
  <rect x="11" y="14" width="1" height="1" fill="#EDEAE3"/>
  <rect x="12" y="14" width="9" height="1" fill="#161412"/>
  <rect x="21" y="14" width="1" height="1" fill="#EDEAE3"/>
  <rect x="0" y="15" width="11" height="1" fill="#EDEAE3"/>
  <rect x="11" y="15" width="11" height="1" fill="#161412"/>
  <rect x="22" y="15" width="1" height="1" fill="#EDEAE3"/>
  <rect x="30" y="15" width="2" height="1" fill="#8A857D"/>
  <rect x="0" y="16" width="11" height="1" fill="#EDEAE3"/>
  <rect x="11" y="16" width="12" height="1" fill="#161412"/>
  <rect x="23" y="16" width="1" height="1" fill="#EDEAE3"/>
  <rect x="27" y="16" width="3" height="1" fill="#8A857D"/>
  <rect x="9" y="17" width="1" height="1" fill="#EDEAE3"/>
  <rect x="10" y="17" width="13" height="1" fill="#161412"/>
  <rect x="23" y="17" width="1" height="1" fill="#EDEAE3"/>
  <rect x="24" y="17" width="3" height="1" fill="#8A857D"/>
  <rect x="8" y="18" width="1" height="1" fill="#EDEAE3"/>
  <rect x="9" y="18" width="13" height="1" fill="#161412"/>
  <rect x="22" y="18" width="2" height="1" fill="#8A857D"/>
  <rect x="24" y="18" width="1" height="1" fill="#EDEAE3"/>
  <rect x="8" y="19" width="1" height="1" fill="#EDEAE3"/>
  <rect x="9" y="19" width="13" height="1" fill="#161412"/>
  <rect x="22" y="19" width="10" height="1" fill="#8A857D"/>
  <rect x="7" y="20" width="1" height="1" fill="#EDEAE3"/>
  <rect x="8" y="20" width="14" height="1" fill="#161412"/>
  <rect x="22" y="20" width="2" height="1" fill="#8A857D"/>
  <rect x="24" y="20" width="1" height="1" fill="#161412"/>
  <rect x="25" y="20" width="1" height="1" fill="#EDEAE3"/>
  <rect x="6" y="21" width="1" height="1" fill="#EDEAE3"/>
  <rect x="7" y="21" width="15" height="1" fill="#161412"/>
  <rect x="22" y="21" width="1" height="1" fill="#B5432E"/>
  <rect x="23" y="21" width="1" height="1" fill="#161412"/>
  <rect x="24" y="21" width="3" height="1" fill="#8A857D"/>
  <rect x="6" y="22" width="1" height="1" fill="#EDEAE3"/>
  <rect x="7" y="22" width="16" height="1" fill="#161412"/>
  <rect x="23" y="22" width="2" height="1" fill="#B5432E"/>
  <rect x="25" y="22" width="1" height="1" fill="#161412"/>
  <rect x="26" y="22" width="1" height="1" fill="#EDEAE3"/>
  <rect x="27" y="22" width="3" height="1" fill="#8A857D"/>
  <rect x="5" y="23" width="1" height="1" fill="#EDEAE3"/>
  <rect x="6" y="23" width="19" height="1" fill="#161412"/>
  <rect x="25" y="23" width="1" height="1" fill="#B5432E"/>
  <rect x="26" y="23" width="1" height="1" fill="#161412"/>
  <rect x="27" y="23" width="1" height="1" fill="#EDEAE3"/>
  <rect x="30" y="23" width="2" height="1" fill="#8A857D"/>
  <rect x="5" y="24" width="1" height="1" fill="#EDEAE3"/>
  <rect x="6" y="24" width="20" height="1" fill="#161412"/>
  <rect x="26" y="24" width="2" height="1" fill="#B5432E"/>
  <rect x="4" y="25" width="24" height="1" fill="#EDEAE3"/>
  <rect x="28" y="25" width="1" height="1" fill="#B5432E"/>
  <rect x="29" y="26" width="2" height="1" fill="#B5432E"/>
  <rect x="31" y="27" width="1" height="1" fill="#B5432E"/>
</svg>
