<svg xmlns="http://www.w3.org/2000/svg" viewBox="0 0 32 32" width="128" height="128"
     shape-rendering="crispEdges" role="img" aria-label="un reloj de aula parado">
  <rect x="8" y="2" width="17" height="1" fill="#8A857D"/>
  <rect x="8" y="3" width="17" height="1" fill="#8A857D"/>
  <rect x="8" y="4" width="1" height="1" fill="#8A857D"/>
  <rect x="9" y="4" width="4" height="1" fill="#161412"/>
  <rect x="13" y="4" width="7" height="1" fill="#EDEAE3"/>
  <rect x="20" y="4" width="4" height="1" fill="#161412"/>
  <rect x="24" y="4" width="1" height="1" fill="#8A857D"/>
  <rect x="8" y="5" width="1" height="1" fill="#8A857D"/>
  <rect x="9" y="5" width="3" height="1" fill="#161412"/>
  <rect x="12" y="5" width="2" height="1" fill="#EDEAE3"/>
  <rect x="14" y="5" width="5" height="1" fill="#161412"/>
  <rect x="19" y="5" width="2" height="1" fill="#EDEAE3"/>
  <rect x="21" y="5" width="3" height="1" fill="#161412"/>
  <rect x="24" y="5" width="1" height="1" fill="#8A857D"/>
  <rect x="8" y="6" width="1" height="1" fill="#8A857D"/>
  <rect x="9" y="6" width="2" height="1" fill="#161412"/>
  <rect x="11" y="6" width="2" height="1" fill="#EDEAE3"/>
  <rect x="13" y="6" width="3" height="1" fill="#161412"/>
  <rect x="16" y="6" width="1" height="1" fill="#EDEAE3"/>
  <rect x="17" y="6" width="3" height="1" fill="#161412"/>
  <rect x="20" y="6" width="2" height="1" fill="#EDEAE3"/>
  <rect x="22" y="6" width="2" height="1" fill="#161412"/>
  <rect x="24" y="6" width="1" height="1" fill="#8A857D"/>
  <rect x="8" y="7" width="1" height="1" fill="#8A857D"/>
  <rect x="9" y="7" width="1" height="1" fill="#161412"/>
  <rect x="10" y="7" width="2" height="1" fill="#EDEAE3"/>
  <rect x="12" y="7" width="4" height="1" fill="#161412"/>
  <rect x="16" y="7" width="1" height="1" fill="#EDEAE3"/>
  <rect x="17" y="7" width="4" height="1" fill="#161412"/>
  <rect x="21" y="7" width="2" height="1" fill="#EDEAE3"/>
  <rect x="23" y="7" width="1" height="1" fill="#161412"/>
  <rect x="24" y="7" width="1" height="1" fill="#8A857D"/>
  <rect x="8" y="8" width="1" height="1" fill="#8A857D"/>
  <rect x="9" y="8" width="2" height="1" fill="#EDEAE3"/>
  <rect x="11" y="8" width="5" height="1" fill="#161412"/>
  <rect x="16" y="8" width="1" height="1" fill="#EDEAE3"/>
  <rect x="17" y="8" width="5" height="1" fill="#161412"/>
  <rect x="22" y="8" width="2" height="1" fill="#EDEAE3"/>
  <rect x="24" y="8" width="1" height="1" fill="#8A857D"/>
  <rect x="8" y="9" width="1" height="1" fill="#8A857D"/>
  <rect x="9" y="9" width="1" height="1" fill="#EDEAE3"/>
  <rect x="10" y="9" width="6" height="1" fill="#161412"/>
  <rect x="16" y="9" width="1" height="1" fill="#EDEAE3"/>
  <rect x="17" y="9" width="6" height="1" fill="#161412"/>
  <rect x="23" y="9" width="1" height="1" fill="#EDEAE3"/>
  <rect x="24" y="9" width="1" height="1" fill="#8A857D"/>
  <rect x="8" y="10" width="1" height="1" fill="#8A857D"/>
  <rect x="9" y="10" width="1" height="1" fill="#EDEAE3"/>
  <rect x="10" y="10" width="6" height="1" fill="#161412"/>
  <rect x="16" y="10" width="1" height="1" fill="#EDEAE3"/>
  <rect x="17" y="10" width="6" height="1" fill="#161412"/>
  <rect x="23" y="10" width="1" height="1" fill="#EDEAE3"/>
  <rect x="24" y="10" width="1" height="1" fill="#8A857D"/>
  <rect x="8" y="11" width="1" height="1" fill="#8A857D"/>
  <rect x="9" y="11" width="1" height="1" fill="#EDEAE3"/>
  <rect x="10" y="11" width="6" height="1" fill="#161412"/>
  <rect x="16" y="11" width="1" height="1" fill="#EDEAE3"/>
  <rect x="17" y="11" width="6" height="1" fill="#161412"/>
  <rect x="23" y="11" width="1" height="1" fill="#EDEAE3"/>
  <rect x="24" y="11" width="1" height="1" fill="#8A857D"/>
  <rect x="8" y="12" width="1" height="1" fill="#8A857D"/>
  <rect x="9" y="12" width="1" height="1" fill="#EDEAE3"/>
  <rect x="10" y="12" width="4" height="1" fill="#161412"/>
  <rect x="14" y="12" width="2" height="1" fill="#EDEAE3"/>
  <rect x="16" y="12" width="7" height="1" fill="#161412"/>
  <rect x="23" y="12" width="1" height="1" fill="#EDEAE3"/>
  <rect x="24" y="12" width="1" height="1" fill="#8A857D"/>
  <rect x="8" y="13" width="1" height="1" fill="#8A857D"/>
  <rect x="9" y="13" width="1" height="1" fill="#EDEAE3"/>
  <rect x="10" y="13" width="2" height="1" fill="#161412"/>
  <rect x="12" y="13" width="2" height="1" fill="#EDEAE3"/>
  <rect x="14" y="13" width="9" height="1" fill="#161412"/>
  <rect x="23" y="13" width="1" height="1" fill="#EDEAE3"/>
  <rect x="24" y="13" width="1" height="1" fill="#8A857D"/>
  <rect x="8" y="14" width="1" height="1" fill="#8A857D"/>
  <rect x="9" y="14" width="2" height="1" fill="#EDEAE3"/>
  <rect x="11" y="14" width="11" height="1" fill="#161412"/>
  <rect x="22" y="14" width="2" height="1" fill="#EDEAE3"/>
  <rect x="24" y="14" width="1" height="1" fill="#8A857D"/>
  <rect x="8" y="15" width="1" height="1" fill="#8A857D"/>
  <rect x="9" y="15" width="1" height="1" fill="#161412"/>
  <rect x="10" y="15" width="2" height="1" fill="#EDEAE3"/>
  <rect x="12" y="15" width="9" height="1" fill="#161412"/>
  <rect x="21" y="15" width="2" height="1" fill="#EDEAE3"/>
  <rect x="23" y="15" width="1" height="1" fill="#161412"/>
  <rect x="24" y="15" width="1" height="1" fill="#8A857D"/>
  <rect x="8" y="16" width="1" height="1" fill="#8A857D"/>
  <rect x="9" y="16" width="2" height="1" fill="#161412"/>
  <rect x="11" y="16" width="2" height="1" fill="#EDEAE3"/>
  <rect x="13" y="16" width="7" height="1" fill="#161412"/>
  <rect x="20" y="16" width="2" height="1" fill="#EDEAE3"/>
  <rect x="22" y="16" width="2" height="1" fill="#161412"/>
  <rect x="24" y="16" width="1" height="1" fill="#8A857D"/>
  <rect x="8" y="17" width="1" height="1" fill="#8A857D"/>
  <rect x="9" y="17" width="3" height="1" fill="#161412"/>
  <rect x="12" y="17" width="2" height="1" fill="#EDEAE3"/>
  <rect x="14" y="17" width="5" height="1" fill="#161412"/>
  <rect x="19" y="17" width="2" height="1" fill="#EDEAE3"/>
  <rect x="21" y="17" width="3" height="1" fill="#161412"/>
  <rect x="24" y="17" width="1" height="1" fill="#8A857D"/>
  <rect x="8" y="18" width="1" height="1" fill="#8A857D"/>
  <rect x="9" y="18" width="4" height="1" fill="#161412"/>
  <rect x="13" y="18" width="7" height="1" fill="#EDEAE3"/>
  <rect x="20" y="18" width="4" height="1" fill="#161412"/>
  <rect x="24" y="18" width="1" height="1" fill="#8A857D"/>
  <rect x="8" y="19" width="1" height="1" fill="#8A857D"/>
  <rect x="9" y="19" width="15" height="1" fill="#161412"/>
  <rect x="24" y="19" width="1" height="1" fill="#8A857D"/>
  <rect x="8" y="20" width="6" height="1" fill="#8A857D"/>
  <rect x="14" y="20" width="5" height="1" fill="#161412"/>
  <rect x="19" y="20" width="6" height="1" fill="#8A857D"/>
  <rect x="13" y="21" width="1" height="1" fill="#8A857D"/>
  <rect x="14" y="21" width="2" height="1" fill="#161412"/>
  <rect x="16" y="21" width="1" height="1" fill="#2A2724"/>
  <rect x="17" y="21" width="2" height="1" fill="#161412"/>
  <rect x="19" y="21" width="1" height="1" fill="#8A857D"/>
  <rect x="13" y="22" width="1" height="1" fill="#8A857D"/>
  <rect x="14" y="22" width="2" height="1" fill="#161412"/>
  <rect x="16" y="22" width="1" height="1" fill="#2A2724"/>
  <rect x="17" y="22" width="2" height="1" fill="#161412"/>
  <rect x="19" y="22" width="1" height="1" fill="#8A857D"/>
  <rect x="13" y="23" width="1" height="1" fill="#8A857D"/>
  <rect x="14" y="23" width="2" height="1" fill="#161412"/>
  <rect x="16" y="23" width="1" height="1" fill="#2A2724"/>
  <rect x="17" y="23" width="2" height="1" fill="#161412"/>
  <rect x="19" y="23" width="1" height="1" fill="#8A857D"/>
  <rect x="13" y="24" width="1" height="1" fill="#8A857D"/>
  <rect x="14" y="24" width="2" height="1" fill="#161412"/>
  <rect x="16" y="24" width="1" height="1" fill="#2A2724"/>
  <rect x="17" y="24" width="2" height="1" fill="#161412"/>
  <rect x="19" y="24" width="1" height="1" fill="#8A857D"/>
  <rect x="13" y="25" width="1" height="1" fill="#8A857D"/>
  <rect x="14" y="25" width="2" height="1" fill="#161412"/>
  <rect x="16" y="25" width="1" height="1" fill="#8A857D"/>
  <rect x="17" y="25" width="2" height="1" fill="#161412"/>
  <rect x="19" y="25" width="1" height="1" fill="#8A857D"/>
  <rect x="13" y="26" width="1" height="1" fill="#8A857D"/>
  <rect x="14" y="26" width="1" height="1" fill="#161412"/>
  <rect x="15" y="26" width="3" height="1" fill="#8A857D"/>
  <rect x="18" y="26" width="1" height="1" fill="#161412"/>
  <rect x="19" y="26" width="1" height="1" fill="#8A857D"/>
  <rect x="13" y="27" width="7" height="1" fill="#8A857D"/>
  <rect x="13" y="28" width="1" height="1" fill="#8A857D"/>
  <rect x="14" y="28" width="1" height="1" fill="#161412"/>
  <rect x="15" y="28" width="3" height="1" fill="#8A857D"/>
  <rect x="18" y="28" width="1" height="1" fill="#161412"/>
  <rect x="19" y="28" width="1" height="1" fill="#8A857D"/>
  <rect x="13" y="29" width="7" height="1" fill="#8A857D"/>
</svg>
