<svg xmlns="http://www.w3.org/2000/svg" viewBox="0 0 32 32" width="128" height="128"
     shape-rendering="crispEdges" role="img" aria-label="un mirlo posado">
  <rect x="10" y="7" width="3" height="1" fill="#8A857D"/>
  <rect x="9" y="8" width="5" height="1" fill="#8A857D"/>
  <rect x="8" y="9" width="2" height="1" fill="#8A857D"/>
  <rect x="10" y="9" width="1" height="1" fill="#B5432E"/>
  <rect x="11" y="9" width="4" height="1" fill="#8A857D"/>
  <rect x="7" y="10" width="8" height="1" fill="#8A857D"/>
  <rect x="16" y="10" width="1" height="1" fill="#8A857D"/>
  <rect x="4" y="11" width="3" height="1" fill="#8A857D"/>
  <rect x="8" y="11" width="12" height="1" fill="#8A857D"/>
  <rect x="9" y="12" width="12" height="1" fill="#8A857D"/>
  <rect x="10" y="13" width="12" height="1" fill="#8A857D"/>
  <rect x="11" y="14" width="11" height="1" fill="#8A857D"/>
  <rect x="11" y="15" width="11" height="1" fill="#8A857D"/>
  <rect x="10" y="16" width="13" height="1" fill="#8A857D"/>
  <rect x="11" y="17" width="11" height="1" fill="#8A857D"/>
  <rect x="11" y="18" width="12" height="1" fill="#8A857D"/>
  <rect x="11" y="19" width="14" height="1" fill="#8A857D"/>
  <rect x="12" y="20" width="9" height="1" fill="#8A857D"/>
  <rect x="22" y="20" width="4" height="1" fill="#8A857D"/>
  <rect x="13" y="21" width="1" height="1" fill="#8A857D"/>
  <rect x="14" y="21" width="1" height="1" fill="#2A2724"/>
  <rect x="15" y="21" width="3" height="1" fill="#8A857D"/>
  <rect x="18" y="21" width="1" height="1" fill="#2A2724"/>
  <rect x="19" y="21" width="1" height="1" fill="#8A857D"/>
  <rect x="24" y="21" width="4" height="1" fill="#8A857D"/>
  <rect x="14" y="22" width="1" height="1" fill="#2A2724"/>
  <rect x="16" y="22" width="1" height="1" fill="#8A857D"/>
  <rect x="18" y="22" width="1" height="1" fill="#2A2724"/>
  <rect x="25" y="22" width="4" height="1" fill="#8A857D"/>
  <rect x="14" y="23" width="1" height="1" fill="#2A2724"/>
  <rect x="18" y="23" width="1" height="1" fill="#2A2724"/>
  <rect x="25" y="23" width="2" height="1" fill="#2A2724"/>
  <rect x="27" y="23" width="4" height="1" fill="#8A857D"/>
  <rect x="14" y="24" width="1" height="1" fill="#2A2724"/>
  <rect x="16" y="24" width="9" height="1" fill="#2A2724"/>
  <rect x="28" y="24" width="4" height="1" fill="#8A857D"/>
  <rect x="7" y="25" width="9" height="1" fill="#2A2724"/>
  <rect x="30" y="25" width="2" height="1" fill="#8A857D"/>
  <rect x="2" y="26" width="5" height="1" fill="#2A2724"/>
</svg>
